<svg xmlns="http://www.w3.org/2000/svg" width="60" viewBox="0 0 60 60" height="60" version="1.0"><defs><clipPath id="a"><path d="M 2.328125 4.714844 L 57.828125 4.714844 L 57.828125 46 L 2.328125 46 Z M 2.328125 4.714844"/></clipPath><clipPath id="b"><path d="M 22 44 L 32 44 L 32 54.964844 L 22 54.964844 Z M 22 44"/></clipPath><clipPath id="c"><path d="M 2.328125 15 L 19 15 L 19 29 L 2.328125 29 Z M 2.328125 15"/></clipPath></defs><g clip-path="url(#a)"><path d="M 21.957031 44.855469 L 36.765625 44.917969 L 50.183594 39.996094 L 57.042969 35.265625 L 46.660156 32.183594 C 46.574219 32.160156 46.511719 32.085938 46.5 32 C 46.492188 31.910156 46.535156 31.824219 46.613281 31.78125 L 49.25 30.289062 L 42.992188 29.238281 C 42.957031 29.230469 42.925781 29.21875 42.902344 29.199219 L 30.292969 20.488281 L 24.792969 19.09375 L 18.15625 19.605469 C 18.09375 19.609375 18.03125 19.589844 17.988281 19.546875 C 17.941406 19.507812 17.917969 19.449219 17.917969 19.386719 L 17.917969 17.78125 C 17.917969 17.746094 17.925781 17.710938 17.941406 17.679688 C 17.953125 17.660156 18.953125 15.730469 19.386719 13.429688 C 19.640625 12.089844 19.652344 10.886719 19.425781 9.859375 C 19.144531 8.589844 18.492188 7.574219 17.488281 6.847656 C 15.648438 5.511719 13.820312 5.109375 12.058594 5.65625 C 10.84375 6.03125 10.074219 6.75 9.953125 6.871094 L 7.441406 11.148438 C 7.421875 11.179688 7.398438 11.203125 7.367188 11.222656 L 2.960938 13.988281 L 2.960938 14.363281 L 11.730469 13.433594 C 11.847656 13.421875 11.957031 13.5 11.976562 13.617188 C 11.980469 13.644531 12.085938 14.328125 11.820312 15.253906 C 11.578125 16.101562 10.964844 17.328125 9.410156 18.355469 C 6.757812 20.105469 4.671875 22.472656 4.390625 22.796875 L 2.867188 28.574219 L 6.132812 35.933594 Z M 36.804688 45.359375 L 21.894531 45.292969 C 21.859375 45.292969 21.820312 45.285156 21.789062 45.265625 L 5.851562 36.28125 C 5.808594 36.257812 5.777344 36.222656 5.757812 36.175781 L 2.429688 28.679688 C 2.410156 28.636719 2.40625 28.585938 2.417969 28.535156 L 3.972656 22.636719 C 3.984375 22.605469 3.996094 22.574219 4.019531 22.550781 C 4.042969 22.523438 6.273438 19.898438 9.164062 17.988281 C 11.445312 16.480469 11.578125 14.527344 11.554688 13.894531 L 2.765625 14.828125 C 2.703125 14.835938 2.640625 14.816406 2.59375 14.773438 C 2.546875 14.730469 2.519531 14.671875 2.519531 14.609375 L 2.519531 13.863281 C 2.519531 13.789062 2.558594 13.71875 2.621094 13.679688 L 7.085938 10.878906 L 9.585938 6.625 C 9.59375 6.609375 9.605469 6.59375 9.613281 6.582031 C 9.648438 6.546875 10.480469 5.6875 11.90625 5.242188 C 13.21875 4.828125 15.296875 4.714844 17.75 6.492188 C 18.84375 7.289062 19.554688 8.390625 19.859375 9.769531 C 20.097656 10.855469 20.085938 12.117188 19.824219 13.519531 C 19.410156 15.707031 18.523438 17.511719 18.359375 17.832031 L 18.359375 19.148438 L 24.796875 18.652344 C 24.820312 18.652344 24.84375 18.652344 24.871094 18.660156 L 30.445312 20.070312 C 30.46875 20.078125 30.492188 20.089844 30.515625 20.105469 L 43.113281 28.808594 L 49.9375 29.957031 C 50.027344 29.972656 50.101562 30.046875 50.117188 30.136719 C 50.132812 30.226562 50.089844 30.320312 50.007812 30.367188 L 47.28125 31.910156 L 57.609375 34.972656 C 57.691406 35 57.753906 35.066406 57.765625 35.148438 C 57.78125 35.234375 57.742188 35.316406 57.671875 35.363281 L 50.414062 40.375 C 50.398438 40.386719 50.382812 40.394531 50.363281 40.398438 L 36.882812 45.34375 C 36.859375 45.355469 36.832031 45.359375 36.804688 45.359375"/></g><path d="M 21.605469 50.378906 Z M 15.007812 52.011719 L 15.589844 52.351562 C 15.671875 52.398438 15.714844 52.492188 15.695312 52.582031 L 15.5625 53.257812 L 22.449219 50.992188 L 23.238281 45.300781 L 22.144531 45.296875 L 21.828125 50.390625 C 21.820312 50.503906 21.726562 50.59375 21.613281 50.597656 L 15.410156 50.863281 L 15.605469 51.253906 C 15.652344 51.34375 15.632812 51.453125 15.558594 51.515625 Z M 15.269531 53.808594 C 15.214844 53.808594 15.160156 53.789062 15.121094 53.75 C 15.0625 53.699219 15.035156 53.621094 15.050781 53.542969 L 15.230469 52.652344 L 14.523438 52.242188 C 14.460938 52.207031 14.421875 52.144531 14.414062 52.074219 C 14.40625 52.003906 14.433594 51.9375 14.484375 51.890625 L 15.132812 51.304688 L 14.859375 50.753906 C 14.824219 50.6875 14.828125 50.609375 14.863281 50.546875 C 14.902344 50.480469 14.972656 50.441406 15.046875 50.4375 L 21.394531 50.167969 L 21.714844 45.0625 C 21.722656 44.945312 21.820312 44.855469 21.9375 44.855469 L 23.492188 44.863281 C 23.554688 44.863281 23.617188 44.890625 23.660156 44.9375 C 23.699219 44.984375 23.71875 45.046875 23.710938 45.109375 L 22.871094 51.1875 C 22.859375 51.269531 22.800781 51.339844 22.71875 51.367188 L 15.335938 53.796875 C 15.316406 53.804688 15.292969 53.808594 15.269531 53.808594"/><g clip-path="url(#b)"><path d="M 30.0625 51.15625 Z M 23.578125 53.1875 L 24.179688 53.488281 C 24.265625 53.53125 24.3125 53.621094 24.300781 53.714844 L 24.207031 54.398438 L 30.941406 51.71875 L 31.429688 45.335938 L 30.289062 45.332031 L 30.285156 51.15625 C 30.285156 51.269531 30.199219 51.363281 30.085938 51.375 L 23.90625 52.015625 L 24.128906 52.394531 C 24.179688 52.480469 24.167969 52.589844 24.097656 52.660156 Z M 23.933594 54.960938 C 23.886719 54.960938 23.835938 54.945312 23.796875 54.914062 C 23.734375 54.867188 23.703125 54.789062 23.714844 54.710938 L 23.839844 53.8125 L 23.105469 53.445312 C 23.042969 53.414062 23 53.351562 22.988281 53.285156 C 22.976562 53.214844 23 53.144531 23.046875 53.09375 L 23.660156 52.472656 L 23.351562 51.941406 C 23.3125 51.875 23.3125 51.796875 23.34375 51.730469 C 23.378906 51.664062 23.445312 51.617188 23.519531 51.609375 L 29.839844 50.957031 L 29.847656 45.109375 C 29.847656 45.050781 29.871094 44.996094 29.910156 44.953125 C 29.953125 44.914062 30.007812 44.890625 30.066406 44.890625 C 30.070312 44.890625 30.070312 44.890625 30.070312 44.890625 L 31.671875 44.894531 C 31.730469 44.898438 31.789062 44.921875 31.832031 44.96875 C 31.875 45.011719 31.894531 45.070312 31.890625 45.132812 L 31.375 51.890625 C 31.367188 51.972656 31.3125 52.046875 31.234375 52.078125 L 24.015625 54.945312 C 23.988281 54.957031 23.960938 54.960938 23.933594 54.960938"/></g><path d="M 10.085938 7.011719 L 11.910156 13.382812 L 18.433594 8.441406 Z M 12.410156 13.558594 L 17.71875 17.222656 L 15.671875 11.09375 C 15.667969 11.09375 15.667969 11.089844 15.667969 11.089844 Z M 18.136719 18 C 18.09375 18 18.050781 17.988281 18.011719 17.960938 L 11.941406 13.769531 C 11.929688 13.792969 11.910156 13.8125 11.890625 13.828125 C 11.820312 13.882812 11.722656 13.886719 11.644531 13.84375 L 7.136719 11.226562 C 7.03125 11.164062 6.996094 11.03125 7.058594 10.925781 C 7.121094 10.820312 7.253906 10.785156 7.359375 10.847656 L 11.390625 13.1875 L 9.5625 6.792969 C 9.542969 6.722656 9.5625 6.644531 9.613281 6.585938 C 9.664062 6.53125 9.738281 6.503906 9.816406 6.519531 L 19.007812 8.09375 C 19.09375 8.109375 19.164062 8.171875 19.1875 8.257812 C 19.207031 8.34375 19.175781 8.433594 19.105469 8.484375 L 16 10.839844 C 16.042969 10.863281 16.074219 10.90625 16.09375 10.957031 L 18.347656 17.710938 C 18.378906 17.800781 18.347656 17.902344 18.269531 17.957031 C 18.230469 17.984375 18.183594 18 18.136719 18"/><g clip-path="url(#c)"><path d="M 2.632812 28.8125 C 2.558594 28.8125 2.484375 28.773438 2.441406 28.707031 C 2.378906 28.601562 2.414062 28.464844 2.519531 28.402344 L 16.785156 19.933594 L 4.242188 22.90625 C 4.136719 22.929688 4.027344 22.875 3.984375 22.777344 C 3.941406 22.675781 3.980469 22.5625 4.070312 22.503906 L 14.878906 15.710938 C 14.980469 15.644531 15.117188 15.675781 15.183594 15.777344 C 15.25 15.878906 15.21875 16.015625 15.117188 16.082031 L 5.433594 22.171875 L 18.085938 19.171875 C 18.191406 19.148438 18.300781 19.203125 18.34375 19.304688 C 18.386719 19.402344 18.347656 19.519531 18.253906 19.574219 L 2.746094 28.78125 C 2.710938 28.800781 2.671875 28.8125 2.632812 28.8125"/></g><path d="M 11.042969 24.019531 L 6.527344 35.273438 L 23.855469 19.449219 Z M 5.960938 36.308594 C 5.917969 36.308594 5.871094 36.296875 5.835938 36.269531 C 5.75 36.210938 5.714844 36.101562 5.753906 36.007812 L 10.667969 23.765625 C 10.691406 23.707031 10.738281 23.664062 10.800781 23.640625 L 24.738281 18.664062 C 24.839844 18.628906 24.949219 18.667969 25.003906 18.757812 C 25.058594 18.847656 25.042969 18.964844 24.964844 19.035156 L 6.109375 36.25 C 6.070312 36.289062 6.015625 36.308594 5.960938 36.308594"/><path d="M 5.960938 36.308594 C 5.839844 36.308594 5.738281 36.210938 5.738281 36.09375 C 5.734375 35.972656 5.832031 35.871094 5.957031 35.867188 L 18.632812 35.671875 C 18.753906 35.667969 18.855469 35.765625 18.855469 35.886719 C 18.859375 36.007812 18.761719 36.109375 18.640625 36.113281 L 5.964844 36.308594 C 5.960938 36.308594 5.960938 36.308594 5.960938 36.308594"/><path d="M 22.648438 51.378906 C 22.601562 51.378906 22.554688 51.363281 22.515625 51.332031 L 21.472656 50.554688 C 21.375 50.480469 21.355469 50.34375 21.425781 50.246094 C 21.5 50.148438 21.640625 50.128906 21.738281 50.203125 L 22.78125 50.980469 C 22.882812 51.054688 22.902344 51.191406 22.828125 51.289062 C 22.78125 51.347656 22.714844 51.378906 22.648438 51.378906"/><path d="M 19.34375 52.257812 C 19.332031 52.257812 19.320312 52.253906 19.304688 52.253906 L 15.371094 51.570312 C 15.25 51.550781 15.167969 51.4375 15.191406 51.316406 C 15.210938 51.195312 15.328125 51.117188 15.445312 51.136719 L 19.121094 51.773438 L 19.121094 50.644531 C 19.121094 50.519531 19.222656 50.421875 19.34375 50.421875 C 19.46875 50.421875 19.566406 50.519531 19.566406 50.644531 L 19.566406 52.035156 C 19.566406 52.101562 19.539062 52.164062 19.488281 52.203125 C 19.445312 52.238281 19.394531 52.257812 19.34375 52.257812"/><path d="M 31.152344 52.09375 C 31.109375 52.09375 31.066406 52.082031 31.03125 52.054688 L 29.941406 51.339844 C 29.835938 51.273438 29.808594 51.136719 29.878906 51.035156 C 29.945312 50.933594 30.082031 50.90625 30.183594 50.972656 L 31.273438 51.6875 C 31.378906 51.757812 31.40625 51.890625 31.339844 51.992188 C 31.296875 52.058594 31.226562 52.09375 31.152344 52.09375"/><path d="M 27.359375 53.511719 C 27.34375 53.511719 27.328125 53.507812 27.308594 53.503906 L 23.886719 52.71875 C 23.769531 52.691406 23.695312 52.574219 23.722656 52.457031 C 23.75 52.335938 23.867188 52.265625 23.988281 52.289062 L 27.15625 53.019531 L 27.277344 51.460938 C 27.289062 51.339844 27.394531 51.25 27.515625 51.257812 C 27.640625 51.269531 27.730469 51.375 27.722656 51.496094 L 27.582031 53.308594 C 27.578125 53.371094 27.542969 53.429688 27.492188 53.46875 C 27.453125 53.496094 27.40625 53.511719 27.359375 53.511719"/><path d="M 17.125 26.929688 L 29.195312 27.800781 L 30.117188 20.660156 Z M 16.523438 27.328125 L 28.375 34.15625 L 29.140625 28.238281 Z M 29.480469 34.347656 L 48.078125 36.484375 L 46.570312 32.214844 Z M 16.402344 27.769531 L 21.996094 44.554688 L 28.140625 34.527344 Z M 28.945312 34.730469 L 36.847656 44.835938 L 47.816406 36.898438 Z M 36.804688 45.359375 C 36.738281 45.359375 36.671875 45.328125 36.628906 45.273438 L 28.46875 34.839844 L 22.125 45.1875 C 22.082031 45.261719 21.996094 45.300781 21.910156 45.292969 C 21.824219 45.285156 21.753906 45.226562 21.726562 45.144531 L 15.796875 27.355469 C 15.769531 27.269531 15.796875 27.171875 15.871094 27.117188 C 15.925781 27.070312 15.996094 27.058594 16.0625 27.074219 C 16.070312 26.996094 16.113281 26.929688 16.1875 26.894531 L 30.292969 20.085938 C 30.363281 20.050781 30.453125 20.058594 30.519531 20.105469 C 30.582031 20.152344 30.617188 20.234375 30.609375 20.3125 L 29.640625 27.832031 L 43.042969 28.800781 C 43.164062 28.808594 43.257812 28.914062 43.25 29.035156 C 43.242188 29.15625 43.132812 29.246094 43.011719 29.238281 L 29.582031 28.269531 L 28.847656 33.984375 L 46.695312 31.753906 C 46.796875 31.742188 46.898438 31.800781 46.929688 31.902344 L 48.609375 36.65625 L 50.480469 40.089844 C 50.539062 40.195312 50.5 40.328125 50.390625 40.386719 C 50.285156 40.445312 50.148438 40.40625 50.089844 40.296875 L 48.332031 37.070312 L 36.9375 45.316406 C 36.898438 45.34375 36.851562 45.359375 36.804688 45.359375"/></svg>