<svg xmlns="http://www.w3.org/2000/svg" width="150" viewBox="0 0 150 60" height="60" version="1.0"><g><g><g><path d="M 12.828125 -4.34375 C 12.828125 -2.863281 12.273438 -1.71875 11.171875 -0.90625 C 10.066406 -0.101562 8.519531 0.296875 6.53125 0.296875 C 4.414062 0.296875 2.765625 -0.0390625 1.578125 -0.71875 L 1.578125 -2.953125 C 2.347656 -2.566406 3.171875 -2.257812 4.046875 -2.03125 C 4.921875 -1.8125 5.765625 -1.703125 6.578125 -1.703125 C 7.835938 -1.703125 8.804688 -1.898438 9.484375 -2.296875 C 10.171875 -2.703125 10.515625 -3.316406 10.515625 -4.140625 C 10.515625 -4.765625 10.242188 -5.296875 9.703125 -5.734375 C 9.160156 -6.171875 8.113281 -6.691406 6.5625 -7.296875 C 5.070312 -7.847656 4.015625 -8.328125 3.390625 -8.734375 C 2.765625 -9.148438 2.300781 -9.617188 2 -10.140625 C 1.695312 -10.660156 1.546875 -11.285156 1.546875 -12.015625 C 1.546875 -13.316406 2.070312 -14.34375 3.125 -15.09375 C 4.175781 -15.84375 5.625 -16.21875 7.46875 -16.21875 C 9.1875 -16.21875 10.863281 -15.867188 12.5 -15.171875 L 11.640625 -13.21875 C 10.046875 -13.875 8.597656 -14.203125 7.296875 -14.203125 C 6.148438 -14.203125 5.285156 -14.019531 4.703125 -13.65625 C 4.128906 -13.300781 3.84375 -12.804688 3.84375 -12.171875 C 3.84375 -11.753906 3.945312 -11.394531 4.15625 -11.09375 C 4.375 -10.789062 4.722656 -10.503906 5.203125 -10.234375 C 5.691406 -9.960938 6.628906 -9.566406 8.015625 -9.046875 C 9.898438 -8.359375 11.171875 -7.664062 11.828125 -6.96875 C 12.492188 -6.28125 12.828125 -5.40625 12.828125 -4.34375 Z M 12.828125 -4.34375" transform="translate(15.33 41.4)"/></g></g></g><g><g><g><path d="M 9.96875 0.296875 C 8.9375 0.296875 7.988281 0.101562 7.125 -0.28125 C 6.269531 -0.664062 5.550781 -1.253906 4.96875 -2.046875 L 4.796875 -2.046875 C 4.910156 -1.117188 4.96875 -0.238281 4.96875 0.59375 L 4.96875 7.15625 L 2.5625 7.15625 L 2.5625 -15.921875 L 4.515625 -15.921875 L 4.859375 -13.75 L 4.96875 -13.75 C 5.59375 -14.625 6.316406 -15.253906 7.140625 -15.640625 C 7.960938 -16.023438 8.90625 -16.21875 9.96875 -16.21875 C 12.082031 -16.21875 13.710938 -15.492188 14.859375 -14.046875 C 16.003906 -12.609375 16.578125 -10.585938 16.578125 -7.984375 C 16.578125 -5.367188 15.992188 -3.332031 14.828125 -1.875 C 13.660156 -0.425781 12.039062 0.296875 9.96875 0.296875 Z M 9.625 -14.171875 C 8 -14.171875 6.820312 -13.71875 6.09375 -12.8125 C 5.363281 -11.914062 4.988281 -10.484375 4.96875 -8.515625 L 4.96875 -7.984375 C 4.96875 -5.742188 5.335938 -4.140625 6.078125 -3.171875 C 6.828125 -2.210938 8.023438 -1.734375 9.671875 -1.734375 C 11.054688 -1.734375 12.132812 -2.289062 12.90625 -3.40625 C 13.6875 -4.519531 14.078125 -6.054688 14.078125 -8.015625 C 14.078125 -9.992188 13.6875 -11.515625 12.90625 -12.578125 C 12.132812 -13.640625 11.039062 -14.171875 9.625 -14.171875 Z M 9.625 -14.171875" transform="translate(29.53 41.4)"/></g></g></g><g><g><g><path d="M 4.96875 0 L 2.5625 0 L 2.5625 -22.609375 L 4.96875 -22.609375 Z M 4.96875 0" transform="translate(47.77 41.4)"/></g></g></g><g><g><g><path d="M 4.96875 0 L 2.5625 0 L 2.5625 -15.921875 L 4.96875 -15.921875 Z M 2.359375 -20.25 C 2.359375 -20.800781 2.492188 -21.203125 2.765625 -21.453125 C 3.035156 -21.710938 3.375 -21.84375 3.78125 -21.84375 C 4.164062 -21.84375 4.5 -21.710938 4.78125 -21.453125 C 5.0625 -21.191406 5.203125 -20.789062 5.203125 -20.25 C 5.203125 -19.707031 5.0625 -19.300781 4.78125 -19.03125 C 4.5 -18.757812 4.164062 -18.625 3.78125 -18.625 C 3.375 -18.625 3.035156 -18.757812 2.765625 -19.03125 C 2.492188 -19.300781 2.359375 -19.707031 2.359375 -20.25 Z M 2.359375 -20.25" transform="translate(55.298 41.4)"/></g></g></g><g><g><g><path d="M 7.703125 -1.703125 C 8.128906 -1.703125 8.539062 -1.734375 8.9375 -1.796875 C 9.332031 -1.859375 9.648438 -1.921875 9.890625 -1.984375 L 9.890625 -0.140625 C 9.617188 -0.015625 9.226562 0.0859375 8.71875 0.171875 C 8.21875 0.253906 7.765625 0.296875 7.359375 0.296875 C 4.273438 0.296875 2.734375 -1.328125 2.734375 -4.578125 L 2.734375 -14.046875 L 0.453125 -14.046875 L 0.453125 -15.21875 L 2.734375 -16.21875 L 3.75 -19.625 L 5.140625 -19.625 L 5.140625 -15.921875 L 9.765625 -15.921875 L 9.765625 -14.046875 L 5.140625 -14.046875 L 5.140625 -4.6875 C 5.140625 -3.71875 5.367188 -2.976562 5.828125 -2.46875 C 6.285156 -1.957031 6.910156 -1.703125 7.703125 -1.703125 Z M 7.703125 -1.703125" transform="translate(62.827 41.4)"/></g></g></g><g><g><g><path d="M 12.359375 0 L 11.875 -2.265625 L 11.765625 -2.265625 C 10.960938 -1.265625 10.164062 -0.585938 9.375 -0.234375 C 8.59375 0.117188 7.609375 0.296875 6.421875 0.296875 C 4.847656 0.296875 3.609375 -0.109375 2.703125 -0.921875 C 1.804688 -1.742188 1.359375 -2.90625 1.359375 -4.40625 C 1.359375 -7.625 3.929688 -9.3125 9.078125 -9.46875 L 11.78125 -9.546875 L 11.78125 -10.53125 C 11.78125 -11.78125 11.507812 -12.703125 10.96875 -13.296875 C 10.4375 -13.898438 9.582031 -14.203125 8.40625 -14.203125 C 7.070312 -14.203125 5.566406 -13.796875 3.890625 -12.984375 L 3.15625 -14.828125 C 3.9375 -15.253906 4.796875 -15.585938 5.734375 -15.828125 C 6.671875 -16.066406 7.609375 -16.1875 8.546875 -16.1875 C 10.441406 -16.1875 11.847656 -15.765625 12.765625 -14.921875 C 13.679688 -14.078125 14.140625 -12.726562 14.140625 -10.875 L 14.140625 0 Z M 6.90625 -1.703125 C 8.40625 -1.703125 9.582031 -2.113281 10.4375 -2.9375 C 11.300781 -3.757812 11.734375 -4.910156 11.734375 -6.390625 L 11.734375 -7.828125 L 9.3125 -7.734375 C 7.394531 -7.660156 6.007812 -7.359375 5.15625 -6.828125 C 4.3125 -6.304688 3.890625 -5.488281 3.890625 -4.375 C 3.890625 -3.5 4.15625 -2.832031 4.6875 -2.375 C 5.21875 -1.925781 5.957031 -1.703125 6.90625 -1.703125 Z M 6.90625 -1.703125" transform="translate(76.592 41.4)"/></g></g></g><g><g><g><path d="M 9.96875 -16.1875 C 12.0625 -16.1875 13.6875 -15.472656 14.84375 -14.046875 C 16 -12.617188 16.578125 -10.597656 16.578125 -7.984375 C 16.578125 -5.367188 15.992188 -3.332031 14.828125 -1.875 C 13.660156 -0.425781 12.039062 0.296875 9.96875 0.296875 C 8.9375 0.296875 7.988281 0.101562 7.125 -0.28125 C 6.269531 -0.664062 5.550781 -1.253906 4.96875 -2.046875 L 4.796875 -2.046875 L 4.28125 0 L 2.5625 0 L 2.5625 -22.609375 L 4.96875 -22.609375 L 4.96875 -17.125 C 4.96875 -15.894531 4.929688 -14.789062 4.859375 -13.8125 L 4.96875 -13.8125 C 6.09375 -15.394531 7.757812 -16.1875 9.96875 -16.1875 Z M 9.625 -14.171875 C 7.976562 -14.171875 6.789062 -13.695312 6.0625 -12.75 C 5.332031 -11.8125 4.96875 -10.222656 4.96875 -7.984375 C 4.96875 -5.742188 5.335938 -4.140625 6.078125 -3.171875 C 6.828125 -2.210938 8.023438 -1.734375 9.671875 -1.734375 C 11.160156 -1.734375 12.265625 -2.269531 12.984375 -3.34375 C 13.710938 -4.425781 14.078125 -5.984375 14.078125 -8.015625 C 14.078125 -10.085938 13.710938 -11.628906 12.984375 -12.640625 C 12.265625 -13.660156 11.144531 -14.171875 9.625 -14.171875 Z M 9.625 -14.171875" transform="translate(95.222 41.4)"/></g></g></g><g><g><g><path d="M 4.96875 0 L 2.5625 0 L 2.5625 -15.921875 L 4.96875 -15.921875 Z M 2.359375 -20.25 C 2.359375 -20.800781 2.492188 -21.203125 2.765625 -21.453125 C 3.035156 -21.710938 3.375 -21.84375 3.78125 -21.84375 C 4.164062 -21.84375 4.5 -21.710938 4.78125 -21.453125 C 5.0625 -21.191406 5.203125 -20.789062 5.203125 -20.25 C 5.203125 -19.707031 5.0625 -19.300781 4.78125 -19.03125 C 4.5 -18.757812 4.164062 -18.625 3.78125 -18.625 C 3.375 -18.625 3.035156 -18.757812 2.765625 -19.03125 C 2.492188 -19.300781 2.359375 -19.707031 2.359375 -20.25 Z M 2.359375 -20.25" transform="translate(113.462 41.4)"/></g></g></g><g><g><g><path d="M 4.96875 0 L 2.5625 0 L 2.5625 -22.609375 L 4.96875 -22.609375 Z M 4.96875 0" transform="translate(120.99 41.4)"/></g></g></g><g><g><g><path d="M 4.96875 0 L 2.5625 0 L 2.5625 -22.609375 L 4.96875 -22.609375 Z M 4.96875 0" transform="translate(128.519 41.4)"/></g></g></g></svg>