<svg xmlns="http://www.w3.org/2000/svg" width="60" viewBox="0 0 60 60" height="60" version="1.0"><defs><clipPath id="a"><path d="M 48 19 L 58.542969 19 L 58.542969 27 L 48 27 Z M 48 19"/></clipPath><clipPath id="b"><path d="M 1.542969 21 L 47 21 L 47 51.546875 L 1.542969 51.546875 Z M 1.542969 21"/></clipPath><clipPath id="c"><path d="M 30 8.796875 L 52 8.796875 L 52 31 L 30 31 Z M 30 8.796875"/></clipPath></defs><g clip-path="url(#a)"><path fill="#C25451" d="M 51.59375 19.585938 C 51.59375 19.585938 53.261719 21.238281 56.746094 21.6875 C 57.714844 21.816406 58.453125 22.601562 58.535156 23.5625 C 58.542969 23.621094 58.542969 23.679688 58.542969 23.742188 C 58.542969 24.703125 57.886719 25.539062 56.953125 25.757812 C 55.386719 26.125 52.667969 26.582031 48.8125 26.582031 L 48.8125 19.585938 Z M 51.59375 19.585938"/></g><g clip-path="url(#b)"><path fill="#FEB450" d="M 1.546875 22.964844 C 1.609375 22.378906 2.101562 21.917969 2.699219 21.917969 C 2.714844 21.917969 2.726562 21.917969 2.738281 21.917969 C 2.847656 21.917969 2.953125 21.921875 3.0625 21.929688 C 3.09375 21.929688 3.128906 21.933594 3.160156 21.933594 C 3.269531 21.941406 3.378906 21.949219 3.488281 21.960938 C 3.527344 21.964844 3.570312 21.972656 3.609375 21.976562 C 3.710938 21.988281 3.8125 22.003906 3.914062 22.019531 C 3.960938 22.027344 4.007812 22.039062 4.050781 22.046875 C 4.121094 22.058594 4.191406 22.074219 4.261719 22.089844 C 4.335938 22.105469 4.410156 22.125 4.480469 22.140625 C 4.542969 22.15625 4.605469 22.171875 4.667969 22.191406 C 4.730469 22.207031 4.792969 22.226562 4.855469 22.246094 C 4.890625 22.257812 4.921875 22.269531 4.957031 22.277344 C 5.070312 22.316406 5.183594 22.355469 5.296875 22.398438 C 5.320312 22.40625 5.339844 22.417969 5.359375 22.425781 C 5.492188 22.476562 5.621094 22.53125 5.75 22.589844 C 5.757812 22.59375 5.765625 22.597656 5.777344 22.601562 C 6.828125 23.09375 7.765625 23.828125 8.492188 24.777344 C 9.371094 25.917969 10.722656 26.582031 12.15625 26.582031 L 46.496094 26.582031 L 46.496094 34.980469 C 46.496094 38.15625 45.605469 41.121094 44.066406 43.640625 C 44.058594 43.65625 44.050781 43.667969 44.042969 43.679688 C 43.960938 43.8125 43.878906 43.941406 43.796875 44.070312 C 43.78125 44.089844 43.769531 44.113281 43.753906 44.132812 C 43.566406 44.417969 43.375 44.691406 43.171875 44.960938 C 43.15625 44.980469 43.140625 45 43.128906 45.015625 C 43.039062 45.132812 42.949219 45.25 42.859375 45.363281 C 42.839844 45.386719 42.824219 45.40625 42.804688 45.429688 C 42.597656 45.6875 42.378906 45.941406 42.152344 46.1875 C 42.132812 46.210938 42.113281 46.230469 42.09375 46.25 C 42 46.355469 41.902344 46.457031 41.800781 46.558594 C 41.78125 46.582031 41.761719 46.601562 41.742188 46.621094 C 41.507812 46.859375 41.269531 47.089844 41.023438 47.308594 C 41 47.332031 40.976562 47.355469 40.949219 47.375 C 40.847656 47.46875 40.742188 47.558594 40.636719 47.648438 C 40.613281 47.667969 40.59375 47.6875 40.570312 47.707031 C 40.316406 47.917969 40.058594 48.121094 39.792969 48.320312 C 39.761719 48.339844 39.734375 48.363281 39.703125 48.382812 C 39.59375 48.464844 39.480469 48.542969 39.371094 48.621094 C 39.34375 48.640625 39.320312 48.65625 39.296875 48.671875 C 39.160156 48.765625 39.023438 48.859375 38.882812 48.949219 C 38.871094 48.957031 38.859375 48.964844 38.847656 48.972656 C 38.722656 49.050781 38.59375 49.128906 38.46875 49.207031 C 38.433594 49.226562 38.398438 49.246094 38.363281 49.269531 C 38.246094 49.335938 38.128906 49.40625 38.011719 49.472656 C 37.984375 49.484375 37.957031 49.5 37.933594 49.515625 C 37.789062 49.59375 37.644531 49.671875 37.496094 49.746094 C 37.472656 49.757812 37.453125 49.769531 37.429688 49.78125 C 37.304688 49.84375 37.179688 49.902344 37.054688 49.964844 C 37.015625 49.980469 36.976562 50 36.9375 50.019531 C 36.8125 50.078125 36.6875 50.132812 36.5625 50.1875 C 36.539062 50.199219 36.511719 50.210938 36.484375 50.222656 C 36.335938 50.285156 36.183594 50.347656 36.027344 50.410156 C 36 50.421875 35.96875 50.433594 35.9375 50.445312 C 35.816406 50.492188 35.691406 50.539062 35.566406 50.582031 C 35.523438 50.597656 35.480469 50.613281 35.433594 50.628906 C 35.304688 50.675781 35.171875 50.71875 35.039062 50.761719 C 35.015625 50.769531 34.988281 50.777344 34.964844 50.785156 C 34.808594 50.835938 34.648438 50.882812 34.492188 50.925781 C 34.453125 50.9375 34.414062 50.949219 34.378906 50.957031 C 34.253906 50.992188 34.128906 51.023438 34.003906 51.054688 C 33.957031 51.066406 33.910156 51.078125 33.863281 51.089844 C 33.722656 51.125 33.582031 51.15625 33.441406 51.1875 C 33.421875 51.191406 33.398438 51.195312 33.378906 51.199219 C 33.214844 51.234375 33.054688 51.265625 32.890625 51.292969 C 32.847656 51.300781 32.800781 51.308594 32.757812 51.316406 C 32.632812 51.335938 32.507812 51.355469 32.382812 51.375 C 32.332031 51.378906 32.285156 51.386719 32.234375 51.394531 C 32.082031 51.414062 31.929688 51.433594 31.777344 51.449219 C 31.761719 51.449219 31.75 51.453125 31.734375 51.453125 C 31.566406 51.472656 31.398438 51.484375 31.230469 51.496094 C 31.183594 51.5 31.136719 51.503906 31.085938 51.507812 C 30.960938 51.515625 30.832031 51.523438 30.707031 51.527344 C 30.65625 51.527344 30.605469 51.53125 30.554688 51.53125 C 30.386719 51.539062 30.214844 51.542969 30.042969 51.542969 L 17.996094 51.542969 C 16.289062 51.542969 14.648438 51.28125 13.101562 50.796875 C 6.40625 48.699219 1.542969 42.414062 1.542969 34.980469 L 1.542969 23.085938 C 1.542969 23.046875 1.542969 23.003906 1.546875 22.964844 Z M 1.546875 22.964844"/></g><path fill="#1A3436" d="M 9.308594 32.257812 C 9.050781 31.8125 9.371094 31.25 9.886719 31.25 L 27.957031 31.25 C 30.773438 31.25 33.054688 33.546875 33.054688 36.378906 C 33.054688 39.214844 30.773438 41.511719 27.957031 41.511719 L 23.179688 41.511719 C 17.890625 41.511719 13.003906 38.675781 10.347656 34.070312 Z M 9.308594 32.257812"/><path fill="#C25451" d="M 9.882812 31.25 C 9.371094 31.25 9.046875 31.808594 9.304688 32.257812 L 10.347656 34.070312 C 13 38.675781 17.890625 41.511719 23.179688 41.511719 L 27.957031 41.511719 C 28.046875 41.511719 28.132812 41.511719 28.222656 41.503906 C 23.085938 41.363281 18.378906 38.558594 15.796875 34.070312 L 14.171875 31.25 Z M 9.882812 31.25"/><g clip-path="url(#c)"><path fill="#FEB450" d="M 30.507812 19.410156 C 30.507812 13.550781 35.226562 8.796875 41.050781 8.796875 C 46.871094 8.796875 51.59375 13.550781 51.59375 19.410156 C 51.59375 25.273438 46.871094 30.023438 41.050781 30.023438 C 35.226562 30.023438 30.507812 25.273438 30.507812 19.410156 Z M 30.507812 19.410156"/></g><path fill="#FEB450" d="M 35.484375 10.398438 C 32.496094 12.269531 30.507812 15.605469 30.507812 19.410156 C 30.507812 25.273438 35.226562 30.023438 41.050781 30.023438 C 44.828125 30.023438 48.144531 28.023438 50.003906 25.015625 C 48.390625 26.027344 46.480469 26.613281 44.4375 26.613281 C 38.617188 26.613281 33.894531 21.863281 33.894531 16 C 33.894531 13.941406 34.476562 12.023438 35.484375 10.398438 Z M 35.484375 10.398438"/><path fill="#1A3436" d="M 46.9375 17.015625 C 46.84375 16.4375 46.378906 15.96875 45.804688 15.875 C 44.851562 15.714844 44.039062 16.53125 44.195312 17.492188 C 44.292969 18.070312 44.757812 18.539062 45.332031 18.632812 C 46.285156 18.792969 47.09375 17.976562 46.9375 17.015625 Z M 46.9375 17.015625"/></svg>