<svg xmlns="http://www.w3.org/2000/svg" width="150" viewBox="0 0 150 60" height="60" version="1.0"><g fill="#FFF"><g><g><path d="M 9.875 -11.375 C 9.226562 -11.6875 8.632812 -11.898438 8.09375 -12.015625 C 7.5625 -12.140625 7.023438 -12.203125 6.484375 -12.203125 C 5.535156 -12.203125 4.832031 -12.023438 4.375 -11.671875 C 3.914062 -11.328125 3.6875 -10.867188 3.6875 -10.296875 C 3.6875 -9.878906 3.84375 -9.515625 4.15625 -9.203125 C 4.476562 -8.898438 5.144531 -8.597656 6.15625 -8.296875 L 7.046875 -8.03125 C 8.378906 -7.632812 9.390625 -7.125 10.078125 -6.5 C 10.765625 -5.875 11.109375 -5.023438 11.109375 -3.953125 C 11.109375 -2.679688 10.632812 -1.660156 9.6875 -0.890625 C 8.75 -0.117188 7.4375 0.265625 5.75 0.265625 C 4.851562 0.265625 3.992188 0.1875 3.171875 0.03125 C 2.347656 -0.125 1.640625 -0.34375 1.046875 -0.625 L 1.671875 -2.671875 C 2.242188 -2.398438 2.863281 -2.175781 3.53125 -2 C 4.207031 -1.832031 4.894531 -1.75 5.59375 -1.75 C 6.488281 -1.75 7.195312 -1.90625 7.71875 -2.21875 C 8.25 -2.539062 8.515625 -3.070312 8.515625 -3.8125 C 8.515625 -4.445312 8.285156 -4.894531 7.828125 -5.15625 C 7.367188 -5.425781 6.710938 -5.691406 5.859375 -5.953125 L 4.9375 -6.25 C 3.644531 -6.664062 2.6875 -7.1875 2.0625 -7.8125 C 1.4375 -8.4375 1.125 -9.242188 1.125 -10.234375 C 1.125 -10.828125 1.253906 -11.375 1.515625 -11.875 C 1.773438 -12.375 2.128906 -12.789062 2.578125 -13.125 C 3.023438 -13.457031 3.554688 -13.71875 4.171875 -13.90625 C 4.785156 -14.101562 5.457031 -14.203125 6.1875 -14.203125 C 6.882812 -14.203125 7.601562 -14.132812 8.34375 -14 C 9.09375 -13.875 9.804688 -13.660156 10.484375 -13.359375 Z M 9.875 -11.375" transform="translate(22.02 38.625)"/></g></g></g><g fill="#FFF"><g><g><path d="M 7.828125 0.265625 C 7.191406 0.265625 6.582031 0.175781 6 0 C 5.414062 -0.175781 4.914062 -0.414062 4.5 -0.71875 L 4.5 6.84375 L 1.90625 6.84375 L 1.90625 -14.203125 L 4.078125 -14.203125 L 4.46875 -12.375 C 5 -12.875 5.601562 -13.300781 6.28125 -13.65625 C 6.957031 -14.019531 7.75 -14.203125 8.65625 -14.203125 C 10.519531 -14.203125 11.988281 -13.601562 13.0625 -12.40625 C 14.132812 -11.21875 14.671875 -9.515625 14.671875 -7.296875 C 14.671875 -5.984375 14.476562 -4.847656 14.09375 -3.890625 C 13.707031 -2.941406 13.191406 -2.160156 12.546875 -1.546875 C 11.898438 -0.929688 11.164062 -0.472656 10.34375 -0.171875 C 9.519531 0.117188 8.679688 0.265625 7.828125 0.265625 Z M 8.09375 -12.0625 C 7.257812 -12.0625 6.535156 -11.851562 5.921875 -11.4375 C 5.304688 -11.03125 4.832031 -10.617188 4.5 -10.203125 L 4.5 -2.734375 C 4.945312 -2.398438 5.429688 -2.148438 5.953125 -1.984375 C 6.472656 -1.828125 6.988281 -1.75 7.5 -1.75 C 8.03125 -1.75 8.5625 -1.84375 9.09375 -2.03125 C 9.632812 -2.226562 10.113281 -2.539062 10.53125 -2.96875 C 10.945312 -3.40625 11.285156 -3.972656 11.546875 -4.671875 C 11.804688 -5.367188 11.9375 -6.222656 11.9375 -7.234375 C 11.9375 -8.722656 11.625 -9.898438 11 -10.765625 C 10.375 -11.628906 9.40625 -12.0625 8.09375 -12.0625 Z M 8.09375 -12.0625" transform="translate(34.13 38.625)"/></g></g></g><g fill="#FFF"><g><g><path d="M 2.140625 0 L 2.140625 -21.140625 L 4.703125 -21.140625 L 4.703125 0 Z M 2.140625 0" transform="translate(49.93 38.625)"/></g></g></g><g fill="#FFF"><g><g><path d="M 2.4375 0 L 2.4375 -13.984375 L 5.0625 -13.984375 L 5.0625 0 Z M 3.75 -17.59375 C 3.289062 -17.59375 2.894531 -17.742188 2.5625 -18.046875 C 2.238281 -18.359375 2.078125 -18.742188 2.078125 -19.203125 C 2.078125 -19.660156 2.238281 -20.046875 2.5625 -20.359375 C 2.894531 -20.671875 3.289062 -20.828125 3.75 -20.828125 C 4.1875 -20.828125 4.570312 -20.671875 4.90625 -20.359375 C 5.25 -20.046875 5.421875 -19.660156 5.421875 -19.203125 C 5.421875 -18.742188 5.25 -18.359375 4.90625 -18.046875 C 4.570312 -17.742188 4.1875 -17.59375 3.75 -17.59375 Z M 3.75 -17.59375" transform="translate(56.773 38.625)"/></g></g></g><g fill="#FFF"><g><g><path d="M 9.375 -12.03125 L 5.265625 -12.03125 L 5.265625 -3.90625 C 5.265625 -3.207031 5.4375 -2.738281 5.78125 -2.5 C 6.132812 -2.257812 6.585938 -2.140625 7.140625 -2.140625 C 7.535156 -2.140625 7.972656 -2.179688 8.453125 -2.265625 C 8.929688 -2.359375 9.347656 -2.46875 9.703125 -2.59375 L 10.125 -0.59375 C 9.726562 -0.4375 9.21875 -0.296875 8.59375 -0.171875 C 7.976562 -0.0546875 7.335938 0 6.671875 0 C 5.273438 0 4.257812 -0.300781 3.625 -0.90625 C 2.988281 -1.507812 2.671875 -2.390625 2.671875 -3.546875 L 2.671875 -12.03125 L 0.59375 -12.03125 L 0.59375 -13.984375 L 2.671875 -13.984375 L 2.671875 -18.453125 L 5.265625 -18.453125 L 5.265625 -13.984375 L 9.375 -13.984375 Z M 9.375 -12.03125" transform="translate(64.092 38.625)"/></g></g></g><g fill="#FFF"><g><g><path d="M 2.171875 -12.734375 C 2.648438 -12.972656 3.097656 -13.1875 3.515625 -13.375 C 3.929688 -13.5625 4.347656 -13.710938 4.765625 -13.828125 C 5.179688 -13.953125 5.609375 -14.046875 6.046875 -14.109375 C 6.484375 -14.171875 6.957031 -14.203125 7.46875 -14.203125 C 8.238281 -14.203125 8.945312 -14.113281 9.59375 -13.9375 C 10.238281 -13.769531 10.796875 -13.488281 11.265625 -13.09375 C 11.734375 -12.695312 12.09375 -12.175781 12.34375 -11.53125 C 12.601562 -10.882812 12.734375 -10.078125 12.734375 -9.109375 L 12.734375 0 L 10.5625 0 L 10.234375 -1.546875 L 10.1875 -1.546875 C 9.5625 -0.890625 8.878906 -0.421875 8.140625 -0.140625 C 7.410156 0.128906 6.601562 0.265625 5.71875 0.265625 C 5.039062 0.265625 4.414062 0.171875 3.84375 -0.015625 C 3.28125 -0.203125 2.789062 -0.46875 2.375 -0.8125 C 1.957031 -1.164062 1.632812 -1.585938 1.40625 -2.078125 C 1.1875 -2.578125 1.078125 -3.132812 1.078125 -3.75 C 1.078125 -5.21875 1.65625 -6.332031 2.8125 -7.09375 C 3.96875 -7.863281 5.5 -8.25 7.40625 -8.25 L 10.09375 -8.25 L 10.09375 -9.4375 C 10.09375 -10.445312 9.832031 -11.132812 9.3125 -11.5 C 8.800781 -11.875 8.109375 -12.0625 7.234375 -12.0625 C 6.710938 -12.0625 6.117188 -11.972656 5.453125 -11.796875 C 4.796875 -11.628906 4.039062 -11.304688 3.1875 -10.828125 Z M 10.125 -6.453125 L 7.921875 -6.40625 C 6.429688 -6.363281 5.375 -6.097656 4.75 -5.609375 C 4.125 -5.117188 3.8125 -4.53125 3.8125 -3.84375 C 3.8125 -3.425781 3.878906 -3.070312 4.015625 -2.78125 C 4.160156 -2.488281 4.34375 -2.265625 4.5625 -2.109375 C 4.789062 -1.953125 5.054688 -1.835938 5.359375 -1.765625 C 5.671875 -1.703125 6 -1.671875 6.34375 -1.671875 C 7 -1.671875 7.660156 -1.820312 8.328125 -2.125 C 9.003906 -2.4375 9.601562 -2.929688 10.125 -3.609375 Z M 10.125 -6.453125" transform="translate(77.008 38.625)"/></g></g></g><g fill="#FFF"><g><g><path d="M 14.9375 -7 C 14.9375 -5.882812 14.769531 -4.878906 14.4375 -3.984375 C 14.101562 -3.097656 13.644531 -2.335938 13.0625 -1.703125 C 12.488281 -1.066406 11.8125 -0.578125 11.03125 -0.234375 C 10.257812 0.0976562 9.441406 0.265625 8.578125 0.265625 C 7.660156 0.265625 6.859375 0.140625 6.171875 -0.109375 C 5.492188 -0.367188 4.851562 -0.769531 4.25 -1.3125 L 4.203125 -1.3125 L 3.921875 0 L 2.046875 0 L 2.046875 -21.140625 L 4.640625 -21.140625 L 4.640625 -12.234375 C 5.273438 -12.910156 5.972656 -13.40625 6.734375 -13.71875 C 7.503906 -14.039062 8.304688 -14.203125 9.140625 -14.203125 C 10.921875 -14.203125 12.332031 -13.566406 13.375 -12.296875 C 14.414062 -11.023438 14.9375 -9.257812 14.9375 -7 Z M 12.203125 -6.96875 C 12.203125 -8.507812 11.875 -9.742188 11.21875 -10.671875 C 10.5625 -11.597656 9.640625 -12.0625 8.453125 -12.0625 C 7.703125 -12.0625 7.019531 -11.890625 6.40625 -11.546875 C 5.789062 -11.210938 5.203125 -10.738281 4.640625 -10.125 L 4.640625 -3.328125 C 5.054688 -2.859375 5.523438 -2.476562 6.046875 -2.1875 C 6.578125 -1.894531 7.191406 -1.75 7.890625 -1.75 C 8.441406 -1.75 8.976562 -1.847656 9.5 -2.046875 C 10.03125 -2.242188 10.492188 -2.554688 10.890625 -2.984375 C 11.285156 -3.410156 11.601562 -3.953125 11.84375 -4.609375 C 12.082031 -5.265625 12.203125 -6.050781 12.203125 -6.96875 Z M 12.203125 -6.96875" transform="translate(92.958 38.625)"/></g></g></g><g fill="#FFF"><g><g><path d="M 2.4375 0 L 2.4375 -13.984375 L 5.0625 -13.984375 L 5.0625 0 Z M 3.75 -17.59375 C 3.289062 -17.59375 2.894531 -17.742188 2.5625 -18.046875 C 2.238281 -18.359375 2.078125 -18.742188 2.078125 -19.203125 C 2.078125 -19.660156 2.238281 -20.046875 2.5625 -20.359375 C 2.894531 -20.671875 3.289062 -20.828125 3.75 -20.828125 C 4.1875 -20.828125 4.570312 -20.671875 4.90625 -20.359375 C 5.25 -20.046875 5.421875 -19.660156 5.421875 -19.203125 C 5.421875 -18.742188 5.25 -18.359375 4.90625 -18.046875 C 4.570312 -17.742188 4.1875 -17.59375 3.75 -17.59375 Z M 3.75 -17.59375" transform="translate(109.025 38.625)"/></g></g></g><g fill="#FFF"><g><g><path d="M 2.140625 0 L 2.140625 -21.140625 L 4.703125 -21.140625 L 4.703125 0 Z M 2.140625 0" transform="translate(116.345 38.625)"/></g></g></g><g fill="#FFF"><g><g><path d="M 2.140625 0 L 2.140625 -21.140625 L 4.703125 -21.140625 L 4.703125 0 Z M 2.140625 0" transform="translate(123.188 38.625)"/></g></g></g></svg>
